<?xml version="1.0" encoding="utf-8"?>
<!-- Generator: Adobe Illustrator 24.0.1, SVG Export Plug-In . SVG Version: 6.00 Build 0)  -->
<svg version="1.1" id="Logo_1_" xmlns="http://www.w3.org/2000/svg" xmlns:xlink="http://www.w3.org/1999/xlink" x="0px" y="0px"
	 viewBox="0 0 301.68 73.24" style="enable-background:new 0 0 301.68 73.24;" xml:space="preserve">
<style type="text/css">
	.st0{fill:#D11B1B;}
	.st1{fill:#343041;}
</style>
<g>
	<g>
		<path class="st0" d="M20.18,39.45c-0.83-2.82-1.23-5.75-1.23-8.66c0-7.88,3.01-15.77,9.02-21.77C33.97,3.01,41.86,0,49.73,0
			S65.5,3.02,71.51,9.02c6.01,6.01,9.02,13.9,9.02,21.77c0,2.92-0.42,5.84-1.23,8.66c-0.28,0.94-0.97,1.61-1.91,1.84
			c-0.95,0.24-1.87-0.01-2.57-0.69l-0.19-0.19c-0.7-0.7-0.96-1.67-0.68-2.63c0.65-2.28,0.99-4.64,0.99-6.99
			c0-6.45-2.47-12.92-7.38-17.83c-4.93-4.92-11.39-7.39-17.83-7.39c-6.45,0-12.91,2.47-17.83,7.39c-4.93,4.93-7.39,11.39-7.39,17.83
			c0,2.36,0.33,4.7,0.99,6.99c0.28,0.97,0.03,1.93-0.68,2.63l-0.19,0.19c-0.68,0.68-1.62,0.95-2.57,0.69
			C21.15,41.04,20.44,40.38,20.18,39.45z M67.64,56.46l-16,16c-1.04,1.05-2.74,1.04-3.8,0l-15.99-16c-1.05-1.05-1.04-2.74,0-3.79
			L32,52.52c1.04-1.05,2.74-1.05,3.79,0l12.05,12.05c1.04,1.04,2.75,1.04,3.8,0l12.05-12.05c1.04-1.05,2.74-1.05,3.8,0l0.15,0.15
			C68.67,53.71,68.67,55.41,67.64,56.46L67.64,56.46z"/>
		<path class="st1" d="M19.17,51.75l28.66-28.66c1.04-1.05,2.75-1.05,3.8,0l28.65,28.65c1.04,1.04,1.04,2.75,0,3.79l-0.15,0.15
			c-1.05,1.05-2.75,1.05-3.79,0L51.64,30.99c-1.04-1.05-2.75-1.05-3.8,0l-24.7,24.7c-1.04,1.05-2.74,1.05-3.8,0l-0.14-0.15
			c-1.04-1.04-1.04-2.75,0-3.79H19.17z"/>
		<path class="st1" d="M45.21,41.9h2.59c0.66,0,1.2,0.54,1.2,1.2v2.59c0,0.66-0.54,1.2-1.2,1.2h-2.59c-0.66,0-1.2-0.54-1.2-1.2V43.1
			C44.01,42.44,44.55,41.9,45.21,41.9z M51.68,48.31h2.6c0.66,0,1.2,0.54,1.2,1.2v2.59c0,0.66-0.54,1.2-1.2,1.2h-2.6
			c-0.66,0-1.2-0.54-1.2-1.2v-2.59C50.48,48.85,51.02,48.31,51.68,48.31z M45.21,48.31h2.59c0.66,0,1.2,0.54,1.2,1.2v2.59
			c0,0.66-0.54,1.2-1.2,1.2h-2.59c-0.66,0-1.2-0.54-1.2-1.2v-2.59C44.01,48.85,44.55,48.31,45.21,48.31z M51.68,41.9h2.6
			c0.66,0,1.2,0.54,1.2,1.2v2.59c0,0.66-0.54,1.2-1.2,1.2h-2.6c-0.66,0-1.2-0.54-1.2-1.2V43.1C50.48,42.44,51.02,41.9,51.68,41.9z"
			/>
	</g>
	<g>
		<g>
			<path class="st1" d="M112.09,23.3v6.41H95.04V0.58h6.65V23.3H112.09z"/>
			<path class="st1" d="M120.43,15.14c0-8.57,6.79-15.14,15.14-15.14c8.37,0,15.14,6.58,15.14,15.14s-6.79,15.14-15.14,15.14
				C127.21,30.29,120.43,23.71,120.43,15.14z M144.07,15.14c0-5.2-3.74-8.66-8.49-8.66s-8.49,3.45-8.49,8.66s3.74,8.66,8.49,8.66
				C140.31,23.8,144.07,20.35,144.07,15.14z"/>
			<path class="st1" d="M180.68,6.99h-7.49V29.7h-6.65V6.99h-7.49V0.58h21.64V6.99z"/>
			<path class="st1" d="M206.9,25.14h-10.82l-1.46,4.58h-7.28l9.9-29.14h8.49l9.9,29.14h-7.28L206.9,25.14z M204.9,18.88l-3.42-10.7
				l-3.4,10.7H204.9z"/>
			<path class="st1" d="M236.28,20.14h-3.16v9.56h-6.65V0.58h11.65c5.53,0,9.99,4.46,9.99,9.99c0,3.59-2.16,6.82-5.36,8.44
				l6.21,10.7h-7.16L236.28,20.14z M233.11,14.31h5c1.82,0,3.33-1.62,3.33-3.74s-1.5-3.74-3.33-3.74h-5V14.31z"/>
			<path class="st1" d="M273.48,18.51V29.7h-6.65V18.51l-9.78-17.93h7.57l5.53,11.23l5.53-11.23h7.57L273.48,18.51z"/>
		</g>
		<g>
			<path class="st1" d="M108.28,34.15v18.08h-1.36v-8.65H96.4v8.65h-1.36V34.15h1.36v8.13h10.52v-8.13H108.28z"/>
			<path class="st1" d="M137.57,43.18c0-5.16,4.1-9.32,9.32-9.32s9.32,4.16,9.32,9.32s-4.1,9.32-9.32,9.32
				C141.67,52.51,137.57,48.36,137.57,43.18z M154.86,43.18c0-4.44-3.49-8.01-7.96-8.01c-4.47,0-7.96,3.57-7.96,8.01
				s3.49,8.01,7.96,8.01C151.37,51.19,154.86,47.64,154.86,43.18z"/>
			<path class="st1" d="M201.86,52.23h-1.36V36.15l-6.69,11.1h-0.23l-6.69-11.1v16.06h-1.36V34.15h1.7l6.46,10.69l6.46-10.69h1.73
				v18.08H201.86z"/>
			<path class="st1" d="M242.61,50.95v1.29H232.2V34.15h10.27v1.29h-8.91v7.03h8.27v1.29h-8.27v7.18h9.05V50.95z"/>
			<path class="st1" d="M270.7,48.25l1.19-0.7c0.61,2.17,2.45,3.64,5.42,3.64c3.02,0,4.55-1.55,4.55-3.61c0-2.17-1.91-3-4.67-3.87
				c-3.02-0.98-5.74-1.84-5.74-4.99c0-2.97,2.4-4.85,5.48-4.85c2.97,0,4.93,1.7,5.82,3.8l-1.16,0.64c-0.67-1.62-2.07-3.12-4.65-3.12
				c-2.51,0-4.09,1.47-4.09,3.49c0,2.17,1.84,2.85,4.43,3.69c3.2,1.06,5.99,2.07,5.99,5.19c0,3-2.36,4.96-5.94,4.96
				C273.94,52.51,271.53,50.81,270.7,48.25z"/>
		</g>
		<g>
			<path class="st0" d="M107.01,56.41v16.34h-1.23v-7.83h-9.51v7.83h-1.23V56.41h1.23v7.36h9.51v-7.36H107.01z"/>
			<path class="st0" d="M110.05,66.91c0-3.46,2.74-6.1,6.14-6.1c3.39,0,6.13,2.63,6.13,6.1c0,3.46-2.74,6.1-6.13,6.1
				C112.79,73.01,110.05,70.37,110.05,66.91z M121.11,66.91c0-2.78-2.15-4.98-4.92-4.98c-2.78,0-4.95,2.2-4.95,4.98
				s2.17,4.98,4.95,4.98S121.11,69.7,121.11,66.91z"/>
			<path class="st0" d="M141.83,65.35v7.4h-1.17v-7.4c0-2.21-1.28-3.42-3.1-3.42c-1.96,0-3.51,1.31-3.51,4.3v6.52h-1.17v-7.4
				c0-2.21-1.19-3.42-2.99-3.42c-1.91,0-3.63,1.31-3.63,4.3v6.52h-1.17V61.07h1.17v2c0.86-1.61,2.27-2.27,3.76-2.27
				c1.7,0,3.04,0.84,3.64,2.38c0.84-1.64,2.33-2.38,3.9-2.38C140.06,60.82,141.83,62.43,141.83,65.35z"/>
			<path class="st0" d="M156.15,66.96c0,0.18-0.03,0.38-0.03,0.56h-10.58c0.29,2.63,2.29,4.36,4.95,4.36c1.91,0,3.36-0.89,4.03-2.12
				l1.02,0.6c-0.96,1.6-2.78,2.63-5.09,2.63c-3.6,0-6.14-2.57-6.14-6.1c0-3.43,2.47-6.1,6.05-6.1
				C153.92,60.82,156.15,63.77,156.15,66.96z M145.54,66.38h9.39c-0.26-2.84-2.27-4.44-4.56-4.44
				C147.72,61.94,145.78,63.78,145.54,66.38z"/>
			<path class="st0" d="M167.62,62.22v7.59c0,2.06,1.1,2.11,3.48,1.9v1.05c-3.06,0.47-4.67-0.29-4.67-2.95v-7.59h-2.57v-1.14h2.57
				v-2.92l1.19-0.35v3.27h3.48v1.14C171.09,62.22,167.62,62.22,167.62,62.22z"/>
			<path class="st0" d="M183.76,65.5v7.27h-1.19V65.5c0-2.15-1.23-3.55-3.43-3.55c-2.29,0-4.09,1.49-4.09,4.65v6.17h-1.17V56.41
				h1.17v6.89c0.89-1.73,2.38-2.47,4.18-2.47C182.02,60.82,183.76,62.67,183.76,65.5z"/>
			<path class="st0" d="M198.53,61.07v11.68h-1.19v-2.63c-0.98,1.75-2.78,2.89-5.03,2.89c-3.31,0-6.05-2.63-6.05-6.1
				c0-3.46,2.74-6.1,6.05-6.1c2.24,0,4.03,1.14,5.03,2.89v-2.63C197.34,61.07,198.53,61.07,198.53,61.07z M197.34,66.91
				c0-2.78-2.15-4.98-4.92-4.98c-2.78,0-4.95,2.2-4.95,4.98s2.17,4.98,4.95,4.98C195.19,71.89,197.34,69.7,197.34,66.91z"/>
			<path class="st0" d="M204.62,62.22v7.59c0,2.06,1.1,2.11,3.48,1.9v1.05c-3.06,0.47-4.67-0.29-4.67-2.95v-7.59h-2.57v-1.14h2.57
				v-2.92l1.19-0.35v3.27h3.48v1.14C208.1,62.22,204.62,62.22,204.62,62.22z"/>
			<path class="st0" d="M233.85,65.35v7.4h-1.17v-7.4c0-2.21-1.28-3.42-3.1-3.42c-1.96,0-3.51,1.31-3.51,4.3v6.52h-1.17v-7.4
				c0-2.21-1.19-3.42-2.99-3.42c-1.91,0-3.63,1.31-3.63,4.3v6.52h-1.17V61.07h1.17v2c0.86-1.61,2.27-2.27,3.76-2.27
				c1.7,0,3.04,0.84,3.64,2.38c0.84-1.64,2.33-2.38,3.9-2.38C232.07,60.82,233.85,62.43,233.85,65.35z"/>
			<path class="st0" d="M248.61,61.07v11.68h-1.19v-2.63c-0.98,1.75-2.78,2.89-5.03,2.89c-3.31,0-6.05-2.63-6.05-6.1
				c0-3.46,2.74-6.1,6.05-6.1c2.24,0,4.03,1.14,5.03,2.89v-2.63C247.43,61.07,248.61,61.07,248.61,61.07z M247.43,66.91
				c0-2.78-2.15-4.98-4.92-4.98c-2.78,0-4.95,2.2-4.95,4.98s2.17,4.98,4.95,4.98C245.27,71.89,247.43,69.7,247.43,66.91z"/>
			<path class="st0" d="M254.71,62.22v7.59c0,2.06,1.1,2.11,3.48,1.9v1.05c-3.06,0.47-4.67-0.29-4.67-2.95v-7.59h-2.57v-1.14h2.57
				v-2.92l1.19-0.35v3.27h3.48v1.14C258.19,62.22,254.71,62.22,254.71,62.22z"/>
			<path class="st0" d="M259.5,66.91c0-3.46,2.62-6.1,6.14-6.1c2.29,0,4.24,1.17,5.09,2.99l-0.96,0.56
				c-0.68-1.47-2.27-2.42-4.14-2.42c-2.83,0-4.95,2.2-4.95,4.98c0,2.78,2.12,4.98,4.95,4.98c1.9,0,3.43-0.98,4.2-2.42l0.98,0.59
				c-0.93,1.79-2.89,2.96-5.18,2.96C262.11,73.01,259.5,70.37,259.5,66.91z"/>
			<path class="st0" d="M283.26,65.5v7.27h-1.19V65.5c0-2.15-1.23-3.55-3.43-3.55c-2.29,0-4.09,1.49-4.09,4.65v6.17h-1.17V56.41
				h1.17v6.89c0.89-1.73,2.38-2.47,4.18-2.47C281.51,60.82,283.26,62.67,283.26,65.5z"/>
		</g>
	</g>
</g>
</svg>
