<?xml version="1.0" encoding="utf-8"?>
<!-- Generator: Adobe Illustrator 24.0.1, SVG Export Plug-In . SVG Version: 6.00 Build 0)  -->
<svg version="1.1" id="Logo_1_" xmlns="http://www.w3.org/2000/svg" xmlns:xlink="http://www.w3.org/1999/xlink" x="0px" y="0px"
	 viewBox="0 0 313.8 108.52" style="enable-background:new 0 0 313.8 108.52;" xml:space="preserve">
<style type="text/css">
	.st0{fill:#D11B1B;}
	.st1{fill:#343041;}
</style>
<g>
	<path class="st0" d="M2.6,58.55c-1.22-4.17-1.82-8.5-1.82-12.8c0-11.66,4.45-23.32,13.34-32.19C23,4.67,34.66,0.22,46.3,0.22
		s23.32,4.46,32.21,13.34c8.89,8.89,13.34,20.55,13.34,32.19c0,4.32-0.62,8.63-1.82,12.8c-0.41,1.38-1.43,2.38-2.82,2.72
		c-1.4,0.36-2.77-0.02-3.79-1.03l-0.28-0.28c-1.04-1.04-1.42-2.48-1.01-3.89c0.96-3.37,1.47-6.86,1.47-10.34
		c0-9.54-3.65-19.1-10.91-26.36C65.39,12.09,55.84,8.44,46.32,8.44c-9.54,0-19.08,3.65-26.36,10.93
		C12.66,26.67,9.03,36.21,9.03,45.73c0,3.48,0.49,6.95,1.47,10.34c0.41,1.43,0.05,2.85-1.01,3.89l-0.28,0.28
		c-1.01,1.01-2.39,1.4-3.79,1.03C4.03,60.91,2.99,59.93,2.6,58.55z M72.78,83.71l-23.66,23.66c-1.53,1.55-4.05,1.53-5.62,0
		L19.86,83.71c-1.55-1.55-1.53-4.05,0-5.6l0.23-0.23c1.53-1.55,4.05-1.55,5.6,0L43.5,95.69c1.53,1.53,4.07,1.53,5.62,0l17.81-17.81
		c1.53-1.55,4.05-1.55,5.62,0l0.23,0.23C74.31,79.64,74.31,82.16,72.78,83.71L72.78,83.71z"/>
	<path class="st1" d="M1.12,76.74L43.5,34.35c1.53-1.55,4.07-1.55,5.62,0l42.37,42.37c1.53,1.53,1.53,4.07,0,5.6l-0.23,0.23
		c-1.55,1.55-4.07,1.55-5.6,0L49.12,46.04c-1.53-1.55-4.07-1.55-5.62,0L6.98,82.57c-1.53,1.55-4.05,1.55-5.62,0l-0.21-0.23
		c-1.53-1.53-1.53-4.07,0-5.6H1.12z"/>
	<path class="st1" d="M39.61,62.18h3.83c0.98,0,1.77,0.8,1.77,1.77v3.83c0,0.98-0.8,1.77-1.77,1.77h-3.83
		c-0.98,0-1.77-0.8-1.77-1.77v-3.83C37.83,62.98,38.63,62.18,39.61,62.18z M49.18,71.66h3.84c0.98,0,1.77,0.8,1.77,1.77v3.83
		c0,0.98-0.8,1.77-1.77,1.77h-3.84c-0.98,0-1.77-0.8-1.77-1.77v-3.83C47.41,72.45,48.21,71.66,49.18,71.66z M39.61,71.66h3.83
		c0.98,0,1.77,0.8,1.77,1.77v3.83c0,0.98-0.8,1.77-1.77,1.77h-3.83c-0.98,0-1.77-0.8-1.77-1.77v-3.83
		C37.83,72.45,38.63,71.66,39.61,71.66z M49.18,62.18h3.84c0.98,0,1.77,0.8,1.77,1.77v3.83c0,0.98-0.8,1.77-1.77,1.77h-3.84
		c-0.98,0-1.77-0.8-1.77-1.77v-3.83C47.41,62.98,48.21,62.18,49.18,62.18z"/>
</g>
<g>
	<g>
		<path class="st1" d="M132.06,40.33v6.8h-18.11V16.22h7.06v24.12H132.06z"/>
		<path class="st1" d="M140.92,31.67c0-9.1,7.21-16.08,16.08-16.08c8.89,0,16.08,6.98,16.08,16.08s-7.21,16.08-16.08,16.08
			C148.11,47.75,140.92,40.77,140.92,31.67z M166.01,31.67c0-5.52-3.97-9.19-9.02-9.19c-5.04,0-9.02,3.66-9.02,9.19
			s3.97,9.19,9.02,9.19C162.02,40.87,166.01,37.21,166.01,31.67z"/>
		<path class="st1" d="M204.88,23.02h-7.96v24.12h-7.06V23.02h-7.96v-6.8h22.98V23.02z"/>
		<path class="st1" d="M232.73,42.28h-11.49l-1.55,4.87h-7.73l10.51-30.94h9.02L242,47.15h-7.73L232.73,42.28z M230.6,35.65
			l-3.63-11.36l-3.61,11.36H230.6z"/>
		<path class="st1" d="M263.92,36.98h-3.35v10.15h-7.06V16.22h12.37c5.87,0,10.61,4.74,10.61,10.61c0,3.81-2.29,7.24-5.7,8.97
			l6.59,11.36h-7.6L263.92,36.98z M260.55,30.8h5.3c1.94,0,3.53-1.72,3.53-3.97s-1.59-3.97-3.53-3.97h-5.3V30.8z"/>
		<path class="st1" d="M303.42,35.26v11.88h-7.06V35.26l-10.38-19.04h8.04l5.87,11.93l5.87-11.93h8.04L303.42,35.26z"/>
	</g>
	<g>
		<path class="st1" d="M128.01,51.86v19.2h-1.45v-9.19H115.4v9.19h-1.45v-19.2h1.45v8.63h11.17v-8.63H128.01z"/>
		<path class="st1" d="M159.11,61.45c0-5.48,4.36-9.9,9.9-9.9c5.54,0,9.9,4.42,9.9,9.9s-4.36,9.9-9.9,9.9S159.11,66.94,159.11,61.45
			z M177.47,61.45c0-4.71-3.71-8.5-8.45-8.5s-8.45,3.79-8.45,8.5s3.71,8.5,8.45,8.5C173.76,69.95,177.47,66.18,177.47,61.45z"/>
		<path class="st1" d="M227.38,71.05h-1.45V53.98l-7.1,11.79h-0.24l-7.1-11.79v17.05h-1.45V51.86h1.8l6.86,11.35l6.86-11.35h1.84
			v19.2H227.38z"/>
		<path class="st1" d="M270.64,69.69v1.37h-11.05v-19.2h10.91v1.37h-9.46v7.46h8.78v1.37h-8.78v7.62h9.61V69.69z"/>
		<path class="st1" d="M300.47,66.83l1.27-0.75c0.65,2.31,2.6,3.87,5.76,3.87c3.2,0,4.83-1.64,4.83-3.84c0-2.31-2.03-3.19-4.96-4.11
			c-3.2-1.04-6.1-1.95-6.1-5.3c0-3.15,2.55-5.15,5.82-5.15c3.15,0,5.23,1.8,6.18,4.03l-1.24,0.68c-0.72-1.72-2.19-3.32-4.94-3.32
			c-2.67,0-4.34,1.56-4.34,3.71c0,2.31,1.95,3.02,4.7,3.92c3.4,1.12,6.36,2.19,6.36,5.51c0,3.19-2.5,5.27-6.31,5.27
			C303.9,71.35,301.35,69.54,300.47,66.83z"/>
	</g>
	<g>
		<path class="st0" d="M126.66,75.49v17.35h-1.31v-8.31h-10.1v8.31h-1.31V75.49h1.31v7.81h10.1v-7.81H126.66z"/>
		<path class="st0" d="M129.89,86.64c0-3.68,2.91-6.47,6.52-6.47c3.6,0,6.5,2.8,6.5,6.47s-2.91,6.47-6.5,6.47
			C132.8,93.11,129.89,90.32,129.89,86.64z M141.64,86.64c0-2.96-2.29-5.29-5.23-5.29c-2.96,0-5.26,2.33-5.26,5.29
			c0,2.96,2.3,5.29,5.26,5.29C139.37,91.93,141.64,89.6,141.64,86.64z"/>
		<path class="st0" d="M163.64,84.98v7.86h-1.25v-7.86c0-2.35-1.36-3.63-3.29-3.63c-2.08,0-3.72,1.39-3.72,4.57v6.92h-1.25v-7.86
			c0-2.35-1.26-3.63-3.18-3.63c-2.03,0-3.85,1.39-3.85,4.57v6.92h-1.25v-12.4h1.25v2.13c0.91-1.71,2.41-2.41,3.99-2.41
			c1.81,0,3.23,0.89,3.87,2.52c0.89-1.74,2.48-2.52,4.14-2.52C161.75,80.17,163.64,81.88,163.64,84.98z"/>
		<path class="st0" d="M178.84,86.69c0,0.19-0.03,0.4-0.03,0.59h-11.23c0.3,2.8,2.43,4.63,5.26,4.63c2.03,0,3.56-0.94,4.28-2.25
			l1.09,0.64c-1.02,1.69-2.96,2.8-5.4,2.8c-3.82,0-6.52-2.73-6.52-6.47c0-3.64,2.62-6.47,6.42-6.47
			C176.47,80.17,178.84,83.3,178.84,86.69z M167.57,86.08h9.97c-0.27-3.02-2.41-4.71-4.84-4.71
			C169.89,81.37,167.83,83.32,167.57,86.08z"/>
		<path class="st0" d="M191.01,81.66v8.05c0,2.19,1.17,2.24,3.69,2.01v1.12c-3.24,0.5-4.95-0.3-4.95-3.13v-8.05h-2.73v-1.21h2.73
			v-3.1l1.26-0.37v3.47h3.69v1.21C194.7,81.66,191.01,81.66,191.01,81.66z"/>
		<path class="st0" d="M208.16,85.14v7.72h-1.26v-7.72c0-2.29-1.31-3.77-3.64-3.77c-2.43,0-4.35,1.58-4.35,4.94v6.55h-1.25V75.49
			h1.25v7.32c0.94-1.84,2.52-2.62,4.44-2.62C206.31,80.17,208.16,82.13,208.16,85.14z"/>
		<path class="st0" d="M223.83,80.44v12.4h-1.26v-2.8c-1.04,1.85-2.96,3.07-5.34,3.07c-3.52,0-6.42-2.8-6.42-6.47
			s2.91-6.47,6.42-6.47c2.38,0,4.28,1.21,5.34,3.07v-2.8C222.57,80.44,223.83,80.44,223.83,80.44z M222.57,86.64
			c0-2.96-2.29-5.29-5.23-5.29c-2.96,0-5.26,2.33-5.26,5.29c0,2.96,2.3,5.29,5.26,5.29C220.29,91.93,222.57,89.6,222.57,86.64z"/>
		<path class="st0" d="M230.31,81.66v8.05c0,2.19,1.17,2.24,3.69,2.01v1.12c-3.24,0.5-4.95-0.3-4.95-3.13v-8.05h-2.73v-1.21h2.73
			v-3.1l1.26-0.37v3.47H234v1.21C234,81.66,230.31,81.66,230.31,81.66z"/>
		<path class="st0" d="M261.34,84.98v7.86h-1.25v-7.86c0-2.35-1.36-3.63-3.29-3.63c-2.08,0-3.72,1.39-3.72,4.57v6.92h-1.25v-7.86
			c0-2.35-1.26-3.63-3.18-3.63c-2.03,0-3.85,1.39-3.85,4.57v6.92h-1.25v-12.4h1.25v2.13c0.91-1.71,2.41-2.41,3.99-2.41
			c1.81,0,3.23,0.89,3.87,2.52c0.89-1.74,2.48-2.52,4.14-2.52C259.45,80.17,261.34,81.88,261.34,84.98z"/>
		<path class="st0" d="M277.01,80.44v12.4h-1.26v-2.8c-1.04,1.85-2.96,3.07-5.34,3.07c-3.52,0-6.42-2.8-6.42-6.47
			s2.91-6.47,6.42-6.47c2.38,0,4.28,1.21,5.34,3.07v-2.8C275.75,80.44,277.01,80.44,277.01,80.44z M275.75,86.64
			c0-2.96-2.29-5.29-5.23-5.29c-2.96,0-5.26,2.33-5.26,5.29c0,2.96,2.3,5.29,5.26,5.29C273.47,91.93,275.75,89.6,275.75,86.64z"/>
		<path class="st0" d="M283.49,81.66v8.05c0,2.19,1.17,2.24,3.69,2.01v1.12c-3.24,0.5-4.95-0.3-4.95-3.13v-8.05h-2.73v-1.21h2.73
			v-3.1l1.26-0.37v3.47h3.69v1.21C287.18,81.66,283.49,81.66,283.49,81.66z"/>
		<path class="st0" d="M288.57,86.64c0-3.68,2.78-6.47,6.52-6.47c2.43,0,4.51,1.25,5.4,3.18l-1.02,0.59
			c-0.72-1.57-2.41-2.57-4.39-2.57c-3,0-5.26,2.33-5.26,5.29c0,2.96,2.25,5.29,5.26,5.29c2.01,0,3.64-1.04,4.46-2.57l1.04,0.62
			c-0.99,1.9-3.07,3.15-5.5,3.15C291.35,93.11,288.57,90.32,288.57,86.64z"/>
		<path class="st0" d="M313.8,85.14v7.72h-1.26v-7.72c0-2.29-1.31-3.77-3.64-3.77c-2.43,0-4.35,1.58-4.35,4.94v6.55h-1.25V75.49
			h1.25v7.32c0.94-1.84,2.52-2.62,4.44-2.62C311.95,80.17,313.8,82.13,313.8,85.14z"/>
	</g>
</g>
</svg>
